<!DOCTYPE svg PUBLIC "-//W3C//DTD SVG 1.1//EN" "http://www.w3.org/Graphics/SVG/1.1/DTD/svg11.dtd">
<!-- Uploaded to: SVG Repo, www.svgrepo.com, Transformed by: SVG Repo Mixer Tools -->
<svg fill="#000000" width="800px" height="800px" viewBox="0 0 24 24" id="hastag-circle" data-name="Flat Color" xmlns="http://www.w3.org/2000/svg" class="icon flat-color">
<g id="SVGRepo_bgCarrier" stroke-width="0"/>
<g id="SVGRepo_tracerCarrier" stroke-linecap="round" stroke-linejoin="round"/>
<g id="SVGRepo_iconCarrier">
<circle id="primary" cx="12" cy="12" r="10" style="fill: #000000;"/>
<path id="secondary" d="M12.73,18l-.26,0a1,1,0,0,1-.71-1.23L12.23,15H10.16l-.33,1.26a1,1,0,0,1-1.94-.52l.2-.74H7a1,1,0,0,1,0-2H8.63l.53-2H8A1,1,0,0,1,8,9H9.7l.6-2.26a1,1,0,0,1,1.94.52L11.77,9h2.07l.33-1.26a1,1,0,1,1,1.94.52l-.2.74H17a1,1,0,0,1,0,2H15.37l-.53,2H16a1,1,0,0,1,0,2H14.3l-.6,2.26A1,1,0,0,1,12.73,18Zm-2-5h2.07l.53-2H11.23Z" style="fill: #e6e6e6;"/>
</g>
</svg>